<svg xmlns="http://www.w3.org/2000/svg" viewBox="0 0 647.12 402.75"><defs><style>.cls-1,.cls-3{fill:none;}.cls-1{stroke:#8dc63f;}.cls-1,.cls-2,.cls-3{stroke-miterlimit:10;}.cls-2{fill:#27b56b;}.cls-2,.cls-3{stroke:#26b56b;}.cls-16,.cls-4{font-size:21px;}.cls-4{fill:#2d2c80;font-family:CambriaMath, Cambria Math;}.cls-14,.cls-5{letter-spacing:-0.03em;}.cls-6{fill:#5ea4cf;}.cls-7{fill:#007fc0;}.cls-15,.cls-8{letter-spacing:-0.02em;}.cls-9{letter-spacing:-0.01em;}.cls-10{letter-spacing:-0.01em;}.cls-11{letter-spacing:0em;}.cls-12{letter-spacing:-0.01em;}.cls-13,.cls-14,.cls-15{fill:#2a86c0;}.cls-16{fill:#231f20;font-family:InkFree, Ink Free;}</style></defs><title>JsonDesign</title><g id="Layer_5" data-name="Layer 5"><rect class="cls-1" x="163.22" y="-105.62" width="397.3" height="646.12" rx="10" transform="translate(541 -162.72) rotate(90)"/></g><g id="Layer_4" data-name="Layer 4"><line class="cls-2" x1="372.75" y1="82.64" x2="439.45" y2="82.64"/><polygon class="cls-2" points="372.75 75.31 372.75 89.21 365.17 82.26 372.75 75.31"/><line class="cls-2" x1="372.75" y1="228.48" x2="439.45" y2="228.48"/><polygon class="cls-2" points="372.75 221.15 372.75 235.05 365.17 228.1 372.75 221.15"/><polyline class="cls-3" points="72.12 306.34 72.12 315.82 96.28 315.82"/><polygon class="cls-2" points="92.49 322.39 92.49 308.5 100.07 315.44 92.49 322.39"/><polyline class="cls-3" points="139.19 306.34 139.19 315.82 163.35 315.82"/><polygon class="cls-2" points="159.56 322.39 159.56 308.5 167.14 315.44 159.56 322.39"/><line class="cls-2" x1="372.75" y1="228.48" x2="439.45" y2="228.48"/><polygon class="cls-2" points="372.75 221.15 372.75 235.05 365.17 228.1 372.75 221.15"/></g><g id="Layer_2" data-name="Layer 2"><text class="cls-4" transform="translate(14.14 32.01)">“timestam<tspan class="cls-5" x="92.4" y="0">p</tspan><tspan x="103.46" y="0">”:[</tspan><tspan class="cls-6"><tspan x="0" y="29" xml:space="preserve">    </tspan><tspan class="cls-7" x="18.5" y="29" xml:space="preserve">  {</tspan></tspan><tspan class="cls-7"><tspan x="0" y="58" xml:space="preserve">        &quot;nam</tspan><tspan class="cls-5" x="84.7" y="58">e</tspan><tspan x="94.33" y="58">&quot;</tspan><tspan class="cls-8" x="102.58" y="58">:</tspan><tspan x="107.71" y="58">&quot;Haei</tspan><tspan class="cls-5" x="156.71" y="58">n</tspan><tspan x="167.82" y="58">&quot;, </tspan><tspan x="0" y="87" xml:space="preserve">        &quot;</tspan><tspan class="cls-9" x="45.25" y="87">t</tspan><tspan class="cls-10" x="52.17" y="87">e</tspan><tspan x="62.17" y="87">xt&quot; </tspan><tspan class="cls-8" x="92.31" y="87">:</tspan><tspan x="97.43" y="87">&quot;Hi, Beluz. H</tspan><tspan class="cls-11" x="208.14" y="87">o</tspan><tspan x="219.19" y="87">w a</tspan><tspan class="cls-12" x="250.33" y="87">r</tspan><tspan x="258.71" y="87">e </tspan><tspan class="cls-8" x="273.58" y="87">y</tspan><tspan x="283.75" y="87">ou?&quot;,</tspan><tspan x="0" y="116" xml:space="preserve">        &quot;tim</tspan><tspan class="cls-5" x="75.66" y="116">e</tspan><tspan x="85.29" y="116">&quot; </tspan><tspan class="cls-8" x="98.17" y="116">:</tspan><tspan x="103.3" y="116">&quot;8:10&quot;</tspan><tspan x="0" y="145" xml:space="preserve">    },</tspan><tspan x="0" y="174" xml:space="preserve">    {</tspan><tspan x="0" y="203" xml:space="preserve">       </tspan><tspan x="32.37" y="203" xml:space="preserve"> &quot;nam</tspan><tspan class="cls-5" x="84.7" y="203">e</tspan><tspan x="94.33" y="203">&quot;</tspan><tspan class="cls-8" x="102.58" y="203">:</tspan><tspan x="107.71" y="203">&quot;Beluz&quot;,</tspan><tspan x="0" y="232" xml:space="preserve">        &quot;</tspan><tspan class="cls-9" x="45.25" y="232">t</tspan><tspan class="cls-10" x="52.17" y="232">e</tspan><tspan x="62.17" y="232">xt&quot; </tspan><tspan class="cls-8" x="92.31" y="232">:</tspan><tspan x="97.43" y="232">&quot;Hi, Haein &quot;,</tspan><tspan x="0" y="261" xml:space="preserve">        &quot;t</tspan><tspan class="cls-13" x="52.36" y="261">im</tspan><tspan class="cls-14" x="75.66" y="261">e</tspan><tspan class="cls-13" x="85.29" y="261">&quot; </tspan><tspan class="cls-15" x="98.17" y="261">:</tspan><tspan class="cls-13" x="103.3" y="261">&quot;8:12</tspan><tspan class="cls-6" x="151.97" y="261">&quot;</tspan></tspan><tspan class="cls-6"><tspan x="0" y="290" xml:space="preserve">   </tspan><tspan class="cls-7" x="13.87" y="290" xml:space="preserve"> }</tspan></tspan><tspan x="0" y="319" xml:space="preserve"> ]</tspan></text></g><g id="Layer_6" data-name="Layer 6"><text class="cls-16" transform="translate(450.69 75.31)">Object<tspan x="0" y="29">JSON Object</tspan></text><text class="cls-16" transform="translate(450.69 216.56)">Property<tspan x="0" y="29">Key/Value pair</tspan></text><text class="cls-16" transform="translate(169.8 323.28)">Value</text><text class="cls-16" transform="translate(103.86 323.28)">Key</text><text class="cls-16" transform="translate(427.7 323.28)">Payload<tspan x="0" y="29">Body</tspan><tspan x="0" y="58">Request/Response body</tspan></text></g><g id="Layer_7" data-name="Layer 7"><path class="cls-1" d="M72.3,59.77H593.07a19.85,19.85,0,0,1,19.85,19.84v41.7a19.85,19.85,0,0,1-19.85,19.85H430.91A19.85,19.85,0,0,0,411.06,161v22.17A19.84,19.84,0,0,1,391.22,203h-324a14.77,14.77,0,0,1-14.77-14.77V79.61A19.85,19.85,0,0,1,72.3,59.77Z" transform="translate(-38.31 -18.29)"/></g><g id="Layer_8" data-name="Layer 8"><rect class="cls-1" x="144.84" y="170.91" width="31.07" height="150.97" rx="10" transform="translate(368.46 67.72) rotate(90)"/><rect class="cls-1" x="102.61" y="275.8" width="31.07" height="58.51" rx="10" transform="translate(384.89 168.62) rotate(90)"/><rect class="cls-1" x="169.46" y="275.8" width="31.07" height="58.51" rx="10" transform="translate(451.74 101.77) rotate(90)"/></g></svg>